<?xml version="1.0" encoding="utf-8"?>
<!-- Generator: Adobe Illustrator 19.0.0, SVG Export Plug-In . SVG Version: 6.00 Build 0)  -->
<svg version="1.1" id="Layer_1" xmlns="http://www.w3.org/2000/svg" xmlns:xlink="http://www.w3.org/1999/xlink" x="0px" y="0px"
	 viewBox="0 0 729.5 284" style="enable-background:new 0 0 729.5 284;" xml:space="preserve">
<style type="text/css">
	.st0{fill:#666666;}
	.st1{font-family:'PrincetownLET';}
	.st2{font-size:235.4951px;}
	.st3{fill:none;stroke:#666666;stroke-width:18;stroke-miterlimit:10;}
	.st4{fill:none;stroke:#666666;stroke-width:10;stroke-miterlimit:10;}
	.st5{fill:none;stroke:#666666;stroke-width:6;stroke-miterlimit:10;}
	.st6{font-family:'Krungthep';}
	.st7{font-size:20px;}
</style>
<text id="XMLID_6_" transform="matrix(1 0 0 1 32.9204 194.866)" class="st0 st1 st2">DAT</text>
<g id="XMLID_25_">
	<g id="XMLID_7_">
		<circle id="XMLID_1_" class="st3" cx="580.3" cy="142.7" r="107.7"/>
		<line id="XMLID_2_" class="st4" x1="472" y1="145" x2="686" y2="145"/>
		<line id="XMLID_3_" class="st4" x1="578" y1="35" x2="578" y2="252"/>
		<path id="XMLID_5_" class="st4" d="M501.8,71.4c43.5,43.5,113.9,43.5,157.4,0"/>
		<path id="XMLID_4_" class="st4" d="M658.2,218.2c-43.5-43.5-113.9-43.5-157.4,0"/>
	</g>
	<path id="XMLID_22_" class="st4" d="M571.7,39.3c-71.9,54.1-72.7,146.5-1.8,206.8"/>
	<path id="XMLID_8_" class="st4" d="M584.7,245.7c71-55.7,71-147.6,0-205.5"/>
</g>
<line id="XMLID_23_" class="st5" x1="33" y1="219" x2="468" y2="219"/>
<text id="XMLID_24_" transform="matrix(1 0 0 1 36.9998 257.4698)" class="st0 st6 st7">The Altas of Biological Databases and Tools</text>
</svg>
