<?xml version="1.0" encoding="UTF-8"?>
<svg width="74px" height="58px" viewBox="0 0 74 58" version="1.1" xmlns="http://www.w3.org/2000/svg" xmlns:xlink="http://www.w3.org/1999/xlink">
    <!-- Generator: Sketch 46.1 (44463) - http://www.bohemiancoding.com/sketch -->
    <title>Tool&amp;database</title>
    <desc>Created with Sketch.</desc>
    <defs></defs>
    <g id="Symbols" stroke="none" stroke-width="1" fill="none" fill-rule="evenodd">
        <g id="Tool&amp;database">
            <g id="Database" transform="translate(14.000000, 18.000000)" stroke-linecap="round" stroke-width="1.5" stroke="#4A4A4A" stroke-linejoin="round">
                <g id="package">
                    <path d="M10.89,0.45 L18.89,4.45 C19.5696577,4.78773001 19.9995973,5.48105603 20,6.24 L20,15.77 C19.9995973,16.528944 19.5696577,17.22227 18.89,17.56 L10.89,21.56 C10.3266321,21.8419095 9.66336793,21.8419095 9.1,21.56 L1.1,17.56 C0.420992406,17.2178689 -0.00529133616,16.5203137 1.11020947e-15,15.76 L1.11020947e-15,6.24 C0.000402725292,5.48105603 0.430342321,4.78773001 1.11,4.45 L9.11,0.45 C9.67063262,0.171414851 10.3293674,0.171414851 10.89,0.45 Z" id="Shape"></path>
                    <polyline id="Shape" points="0.32 5.16 10 10 19.68 5.16"></polyline>
                    <path d="M10,21.76 L10,10" id="Shape"></path>
                    <path d="M5,2.5 L15,7.5" id="Shape"></path>
                </g>
            </g>
            <g id="Tool-Copy" transform="translate(44.000000, 20.000000)" fill="#4A4A4A">
                <path d="M14.1918721,10.1845171 C13.9481187,9.94076373 13.5518631,9.94076373 13.3081097,10.1845171 L12.8124778,10.678274 L11.821214,9.6876352 L14.009057,7.50010467 L15.0000083,7.50010467 C17.4531676,7.50010467 18.7500607,5.98758356 18.7500607,3.12504361 C18.7500607,2.9094156 18.6378716,2.70628777 18.453494,2.5937862 C18.269429,2.47815958 18.0391133,2.46878445 17.8453606,2.56566081 L15.7484563,3.61567546 L15.1353227,3.00316691 L16.1840874,0.903137604 C16.2806512,0.7093849 16.2706511,0.481256716 16.156587,0.296879143 C16.0428354,0.11250157 15.8415826,0 15.6247046,0 C12.7627896,0 11.249956,1.2968931 11.249956,3.75005233 L11.249956,4.74069116 L9.06242548,6.92822169 L5.57112676,3.43754797 L6.06675868,2.94066604 C6.20301058,2.80628916 6.26863649,2.6156615 6.24519867,2.42503384 C6.22176084,2.23128114 6.1114468,2.06252878 5.9464445,1.96565243 L2.82140089,0.0906262647 C2.57577246,-0.0593758286 2.26108057,-0.0187502617 2.05795273,0.184377573 L1.43294401,0.809386296 C1.23044118,1.00938909 1.19137814,1.32501849 1.3391927,1.57189694 L3.21421887,4.69694055 C3.31297025,4.86256786 3.48266011,4.97194439 3.67360028,4.99381969 C3.69922564,5.00006978 3.72453849,5.00006978 3.74985134,5.00006978 C3.91485365,5.00006978 4.07391837,4.93444386 4.19173251,4.81569221 L4.68736443,4.32193532 L8.17866315,7.81260903 L0.807935287,15.1845869 C0.739496832,15.2533379 0.687621108,15.334589 0.656995681,15.4283403 L0.0319869584,17.3033665 C-0.042701584,17.5283696 0.0157367316,17.7752481 0.182926565,17.9408754 L0.807935287,18.5658841 C0.926999449,18.6877608 1.08700168,18.7502617 1.25012896,18.7502617 C1.31606738,18.7502617 1.38294331,18.7408865 1.44763171,18.7190112 L3.32265788,18.0940025 C3.41484667,18.0627521 3.49828533,18.0096263 3.56672379,17.9408754 L10.9374517,10.5720225 L11.9287155,11.5626614 L11.4330836,12.0595433 C11.1890177,12.3032967 11.1890177,12.6970522 11.4330836,12.9408056 L17.0581621,18.5658841 C17.1800388,18.6908858 17.340041,18.7502617 17.5000432,18.7502617 C17.659733,18.7502617 17.8200477,18.6908858 17.9419244,18.5658841 L19.8169506,16.6908579 C20.0610165,16.4471045 20.0610165,16.053349 19.8169506,15.8095956 L14.1918721,10.1845171 L14.1918721,10.1845171 Z M3.87391557,3.36879701 L2.75952502,1.50939606 L4.61705095,2.62503663 L3.87391557,3.36879701 L3.87391557,3.36879701 Z M1.41856881,17.409618 L1.34013021,17.3314919 L1.79607408,15.9627228 L12.3168459,5.44070093 C12.434035,5.32507431 12.4999735,5.16569709 12.4999735,5.00006978 L12.4999735,3.75005233 C12.4999735,2.69378759 12.7718523,1.6125225 14.5762524,1.32501849 L13.8159293,2.84691473 C13.6956151,3.08754309 13.7428033,3.37817214 13.9331185,3.56567476 L15.1831359,4.81569221 C15.3734511,5.00631987 15.6640801,5.05319552 15.904396,4.93444386 L17.4250422,4.17505827 C17.1359757,5.97820843 16.0578356,6.25008722 15.0000083,6.25008722 L13.7499909,6.25008722 C13.5843636,6.25008722 13.4252989,6.31571314 13.3081097,6.4344648 L2.78733791,16.9533616 L1.41856881,17.409618 Z M17.5000432,17.2408656 L12.7590396,12.5001744 L13.7499909,11.5095356 L18.4909946,16.2502268 L17.5000432,17.2408656 L17.5000432,17.2408656 Z" id="121"></path>
            </g>
        </g>
    </g>
</svg>